<svg xmlns="http://www.w3.org/2000/svg" version="1.1" xmlns:xlink="http://www.w3.org/1999/xlink" xmlns:svgjs="http://svgjs.dev/svgjs" width="1500" height="1500" viewBox="0 0 1500 1500"><rect width="1500" height="1500" fill="#000000"></rect><g transform="matrix(0.6666666666666666,0,0,0.6666666666666666,249.39393939393938,446.56633390086904)"><svg viewBox="0 0 396 241" data-background-color="#ffffff" preserveAspectRatio="xMidYMid meet" height="912" width="1500" xmlns="http://www.w3.org/2000/svg" xmlns:xlink="http://www.w3.org/1999/xlink"><g id="tight-bounds" transform="matrix(1,0,0,1,0.2400000000000091,-0.22448432583789213)"><svg viewBox="0 0 395.52 241.44896865167578" height="241.44896865167578" width="395.52"><g><svg viewBox="0 0 395.52 241.44896865167578" height="241.44896865167578" width="395.52"><g><svg viewBox="0 0 395.52000000000004 241.4489686516758" height="241.44896865167578" width="395.52"><g transform="matrix(1,0,0,1,0,148.56556220006289)"><svg viewBox="0 0 395.52000000000004 92.88340645161293" height="92.88340645161293" width="395.52000000000004"><g id="textblocktransform"><svg viewBox="0 0 395.52000000000004 92.88340645161293" height="92.88340645161293" width="395.52000000000004" id="textblock"><g><svg viewBox="0 0 395.52000000000004 92.88340645161293" height="92.88340645161293" width="395.52000000000004"><g transform="matrix(1,0,0,1,0,0)"><svg width="395.52000000000004" viewBox="1.88 -35.7 154.98000000000002 36.400000000000006" height="92.88340645161293" data-palette-color="#4a596d"><path d="M19.23 0.7L19.23 0.7Q14.08 0.7 10.16-1.55 6.25-3.8 4.06-7.9 1.88-12 1.88-17.55L1.88-17.55Q1.88-23.05 4.21-27.14 6.55-31.23 10.65-33.46 14.75-35.7 20.05-35.7L20.05-35.7Q22.85-35.7 25.4-35.11 27.95-34.52 29.83-33.68L29.83-33.68 29.25-28.7Q27.28-29.53 25-30.08 22.73-30.63 20.13-30.63L20.13-30.63Q15.9-30.63 13.18-28.89 10.45-27.15 9.14-24.19 7.83-21.23 7.83-17.57L7.83-17.57Q7.83-13.75 9.16-10.78 10.5-7.8 13.23-6.09 15.95-4.38 20.1-4.38L20.1-4.38Q21.23-4.38 22.7-4.56 24.18-4.75 25.53-5.18L25.53-5.18 25.53-12.83 20.3-12.83 20.3-17.55 30.98-17.55 30.98-1.95Q29-0.85 25.98-0.08 22.95 0.7 19.23 0.7ZM47.12 0.5L47.12 0.5Q43.2 0.5 40.41-1.24 37.62-2.98 36.16-5.89 34.7-8.8 34.7-12.33L34.7-12.33Q34.7-15.88 36.16-18.8 37.62-21.73 40.41-23.46 43.2-25.2 47.12-25.2L47.12-25.2Q51.07-25.2 53.86-23.46 56.65-21.73 58.11-18.8 59.57-15.88 59.57-12.33L59.57-12.33Q59.57-8.8 58.11-5.89 56.65-2.98 53.86-1.24 51.07 0.5 47.12 0.5ZM47.12-3.98L47.12-3.98Q50.57-3.98 52.41-6.23 54.25-8.47 54.25-12.33L54.25-12.33Q54.25-16.2 52.41-18.48 50.57-20.75 47.12-20.75L47.12-20.75Q43.72-20.75 41.87-18.48 40.02-16.2 40.02-12.33L40.02-12.33Q40.02-8.47 41.87-6.23 43.72-3.98 47.12-3.98ZM76.3 0.5L72.07 0.5Q69.75 0.5 68.31-0.4 66.87-1.3 66.21-2.7 65.55-4.1 65.55-5.65L65.55-5.65 65.55-20.53 61.62-20.53 62.1-24.7 65.55-24.7 65.55-30.53 70.77-31.08 70.77-24.7 76.82-24.7 76.82-20.53 70.77-20.53 70.77-8.3Q70.77-6.15 71.02-5.19 71.27-4.23 72.25-3.98 73.22-3.73 75.35-3.73L75.35-3.73 76.75-3.73 76.3 0.5ZM85.97 0L80.74 0 80.74-24.7 85.97-24.7 85.97 0ZM85.97-29.5L80.74-29.5 80.74-35 85.97-35 85.97-29.5ZM97.17 0L91.94 0 91.94-24.7 96.22-24.7 96.92-20.45 95.54-21.38Q97.47-23.28 99.57-24.23 101.67-25.18 104.17-25.18L104.17-25.18Q106.07-25.18 107.67-24.59 109.27-24 110.5-22.7 111.74-21.4 112.49-19.25L112.49-19.25 111.14-19.73Q112.29-22.28 114.58-23.73 116.87-25.18 120.32-25.18L120.32-25.18Q123.54-25.18 125.68-23.91 127.82-22.65 128.87-20.21 129.92-17.78 129.92-14.23L129.92-14.23 129.92 0 124.69 0 124.69-14Q124.69-17.48 123.45-19.09 122.22-20.7 119.39-20.7L119.39-20.7Q117.62-20.7 116.47-20.14 115.32-19.58 114.68-18.61 114.04-17.65 113.79-16.48 113.54-15.3 113.54-14.08L113.54-14.08 113.54 0 108.32 0 108.32-13.48Q108.32-16.2 107.69-17.78 107.07-19.35 105.87-20.03 104.67-20.7 102.97-20.7L102.97-20.7Q100.62-20.7 98.9-19.65 97.19-18.6 96.37-16.5L96.37-16.5 97.17-19.33 97.17 0ZM147.51 0.5L147.51 0.5Q143.09 0.5 140.11-1.29 137.14-3.08 135.63-6.04 134.11-9 134.11-12.53L134.11-12.53Q134.11-15.95 135.53-18.82 136.94-21.7 139.65-23.44 142.36-25.18 146.21-25.18L146.21-25.18Q149.49-25.18 151.89-23.85 154.29-22.53 155.58-20.15 156.86-17.78 156.86-14.6L156.86-14.6Q156.86-13.95 156.8-13.25 156.74-12.55 156.59-11.78L156.59-11.78 139.51-11.78Q139.84-8.85 141.06-7.14 142.29-5.43 144.11-4.7 145.94-3.98 148.06-3.98L148.06-3.98Q149.96-3.98 151.81-4.41 153.66-4.85 155.29-5.68L155.29-5.68 155.76-1.4Q154.34-0.73 152.26-0.11 150.19 0.5 147.51 0.5ZM139.81-15.35L139.81-15.35 151.51-15.35Q151.51-16.82 150.96-18.04 150.41-19.25 149.23-19.98 148.04-20.7 146.16-20.7L146.16-20.7Q143.41-20.7 141.9-19.25 140.39-17.8 139.81-15.35Z" opacity="1" transform="matrix(1,0,0,1,0,0)" fill="#ffffff" class="wordmark-text-0" data-fill-palette-color="primary" id="text-0"></path></svg></g></svg></g></svg></g></svg></g><g transform="matrix(1,0,0,1,74.32216320000002,0)"><svg viewBox="0 0 246.8756736 126.6380191385919" height="126.6380191385919" width="246.8756736"><g><svg xmlns="http://www.w3.org/2000/svg" xmlns:xlink="http://www.w3.org/1999/xlink" version="1.1" x="0" y="0" viewBox="0 30.23194009664237 99.945 51.26805990335763" enable-background="new 0 0 100 100" xml:space="preserve" height="126.6380191385919" width="246.8756736" class="icon-icon-0" data-fill-palette-color="accent" id="icon-0"><path fill="#ffffff" d="M99.945 33.019c-4.848-2.65-11.104-3.301-17.101-2.413-11.481 1.7-20.451 8.93-26.209 20.051-2.054-3.019-3.296-6.817-3.329-10.955-1.551 2.128-2.673 4.684-3.24 7.488-0.567-2.805-1.689-5.36-3.24-7.488-0.033 4.21-1.315 8.074-3.436 11.118-5.754-11.213-14.752-18.506-26.289-20.214C11.103 29.718 4.847 30.368 0 33.019c11.051 1.697 14.079 8.617 12.227 15.589 8.736-2.634 17.313 6.145 14.513 16.375 2.322-1.115 5.657-1.422 8.708-1.018 7.296 0.967 12.496 8.484 14.52 17.535 0.001-0.01 0.003-0.022 0.005-0.034 0.001 0.012 0.004 0.024 0.005 0.034 2.025-9.051 7.224-16.568 14.521-17.535 3.05-0.404 6.385-0.098 8.706 1.018-2.8-10.229 5.778-19.008 14.514-16.375C85.866 41.636 88.895 34.716 99.945 33.019z" data-fill-palette-color="accent"></path></svg></g></svg></g><g></g></svg></g></svg></g><defs></defs></svg><rect width="395.52" height="241.44896865167578" fill="none" stroke="none" visibility="hidden"></rect></g></svg></g></svg>